<svg width="512" height="512" viewBox="0 0 512 512" fill="none" xmlns="http://www.w3.org/2000/svg">
<rect width="512" height="512" fill="transparent"/>
<path d="M362.453 140.219C348.562 127.578 328.719 120 307.25 120H204.75C183.281 120 163.438 127.578 149.547 140.219C135.656 152.859 128 172.453 128 193.594V290.406C128 311.547 135.656 331.141 149.547 343.781C163.438 356.422 183.281 364 204.75 364H307.25C328.719 364 348.562 356.422 362.453 343.781C376.344 331.141 384 311.547 384 290.406V193.594C384 172.453 376.344 152.859 362.453 140.219ZM307.25 345.5H204.75C190.281 345.5 177.344 340.016 167.547 330.344C157.75 320.672 152.188 307.75 152.188 293.312V190.688C152.188 176.219 157.75 163.281 167.547 153.516C177.344 143.75 190.281 138.25 204.75 138.25H307.25C321.719 138.25 334.656 143.75 344.453 153.516C354.25 163.281 359.812 176.219 359.812 190.688V293.312C359.812 307.781 354.25 320.719 344.453 330.406C334.656 340.094 321.719 345.5 307.25 345.5Z" fill="#039BE5"/>
<path d="M256 211V273" stroke="#039BE5" stroke-width="12" stroke-linecap="round" stroke-linejoin="round"/>
</svg>
