<svg width="192" height="192" viewBox="0 0 192 192" fill="none" xmlns="http://www.w3.org/2000/svg">
<rect width="192" height="192" fill="transparent"/>
<path d="M135.92 52.582C130.477 48.4219 122.868 46.0312 114.994 46.0312H77.0062C69.1323 46.0312 61.5233 48.4219 56.0799 52.582C50.6366 56.7422 48 62.8359 48 69.3047V107.945C48 114.414 50.6366 120.508 56.0799 124.668C61.5233 128.828 69.1323 131.219 77.0062 131.219H114.994C122.868 131.219 130.477 128.828 135.92 124.668C141.363 120.508 144 114.414 144 107.945V69.3047C144 62.8359 141.363 56.7422 135.92 52.582ZM114.994 123.656H77.0062C71.3672 123.656 66.2577 121.781 62.0561 118.59C57.8545 115.398 55.5938 110.375 55.5938 105.539V71.4609C55.5938 66.625 57.8545 61.6016 62.0561 58.4023C66.2577 55.2031 71.3672 53.2188 77.0062 53.2188H114.994C120.633 53.2188 125.742 55.2031 129.944 58.4023C134.145 61.6016 136.406 66.625 136.406 71.4609V105.539C136.406 110.375 134.145 115.398 129.944 118.59C125.742 121.781 120.633 123.656 114.994 123.656Z" fill="#039BE5"/>
<path d="M96 77.3906V99.9609" stroke="#039BE5" stroke-width="4" stroke-linecap="round" stroke-linejoin="round"/>
</svg>
