<svg width="180" height="180" viewBox="0 0 180 180" fill="none" xmlns="http://www.w3.org/2000/svg">
<rect width="180" height="180" fill="#039BE5"/>
<path d="M125.469 54.2189C121.281 49.9533 115.115 47.6016 108.633 47.6016H71.3672C64.8853 47.6016 58.7189 49.9533 54.5312 54.2189C50.3436 58.4845 48 64.5705 48 71.1212V108.879C48 115.429 50.3436 121.515 54.5312 125.781C58.7189 130.047 64.8853 132.398 71.3672 132.398H108.633C115.115 132.398 121.281 130.047 125.469 125.781C129.656 121.515 132 115.429 132 108.879V71.1212C132 64.5705 129.656 58.4845 125.469 54.2189ZM108.633 124.742H71.3672C66.5258 124.742 62.1936 122.903 58.916 119.676C55.6384 116.449 53.8438 112.188 53.8438 107.414V72.5859C53.8438 67.8123 55.6384 63.5511 58.916 60.324C62.1936 57.0969 66.5258 55.2578 71.3672 55.2578H108.633C113.474 55.2578 117.806 57.0969 121.084 60.324C124.362 63.5511 126.156 67.8123 126.156 72.5859V107.414C126.156 112.188 124.362 116.449 121.084 119.676C117.806 122.903 113.474 124.742 108.633 124.742Z" fill="white"/>
<path d="M90 78.8906V101.109" stroke="white" stroke-width="4" stroke-linecap="round" stroke-linejoin="round"/>
</svg>
