<svg width="180" height="180" viewBox="0 0 180 180" fill="none" xmlns="http://www.w3.org/2000/svg">
<rect width="180" height="180" rx="40" fill="#039BE5"/>
<g transform="translate(40, 40) scale(0.55)">
<path d="M89.9922 41.5234C89.9922 36.802 85.5135 32.8828 80.2031 32.8828C74.8928 32.8828 70.4141 36.802 70.4141 41.5234V85.7344H89.9922V41.5234Z" fill="white"/>
<path d="M112.008 41.5234C112.008 36.802 116.486 32.8828 121.797 32.8828C127.107 32.8828 131.586 36.802 131.586 41.5234V85.7344H112.008V41.5234Z" fill="white"/>
<path d="M121.797 159.117C148.653 159.117 170.414 139.792 170.414 115.82V85.7344H150.836V115.82C150.836 128.713 137.731 139.539 121.797 139.539C105.862 139.539 92.7578 128.713 92.7578 115.82V85.7344H72.8281V115.82C72.8281 139.792 94.9452 159.117 121.797 159.117Z" fill="white"/>
<path d="M80.2031 159.117C53.3472 159.117 31.5859 139.792 31.5859 115.82V85.7344H51.1641V115.82C51.1641 128.713 64.2688 139.539 80.2031 139.539C96.1374 139.539 109.242 128.713 109.242 115.82V85.7344H129.172V115.82C129.172 139.792 107.055 159.117 80.2031 159.117Z" fill="white"/>
</g>
</svg>
