<svg width="512" height="512" viewBox="0 0 512 512" fill="none" xmlns="http://www.w3.org/2000/svg">
<rect width="512" height="512" fill="none"/>
<path d="M239.979 110.729C239.979 98.1381 228.037 87.6953 213.875 87.6953C199.713 87.6953 187.771 98.1381 187.771 110.729V228.625H239.979V110.729Z" fill="#039BE5"/>
<path d="M298.688 110.729C298.688 98.1381 310.629 87.6953 324.792 87.6953C338.954 87.6953 350.896 98.1381 350.896 110.729V228.625H298.688V110.729Z" fill="#039BE5"/>
<path d="M324.792 424.312C396.408 424.312 454.438 372.779 454.438 308.854V228.625H402.229V308.854C402.229 343.235 367.283 372.104 324.792 372.104C282.301 372.104 247.354 343.235 247.354 308.854V228.625H195.146V308.854C195.146 372.779 253.99 424.312 324.792 424.312Z" fill="#039BE5"/>
<path d="M213.875 424.312C142.259 424.312 84.2292 372.779 84.2292 308.854V228.625H136.438V308.854C136.438 343.235 171.384 372.104 213.875 372.104C256.366 372.104 291.312 343.235 291.312 308.854V228.625H343.521V308.854C343.521 372.779 285.491 424.312 213.875 424.312Z" fill="#039BE5"/>
</svg>
