<svg width="100" height="100" viewBox="0 0 100 100" fill="none" xmlns="http://www.w3.org/2000/svg">
<rect width="100" height="100" fill="transparent"/>
<g transform="translate(15, 15) scale(0.7)">
<path d="M43.3333 8.33333C53.7547 8.33333 62.2619 16.8406 62.2619 27.2619C62.2619 37.6833 53.7547 46.1905 43.3333 46.1905C32.912 46.1905 24.4048 37.6833 24.4048 27.2619C24.4048 16.8406 32.912 8.33333 43.3333 8.33333ZM43.3333 46.1905C53.7547 46.1905 62.2619 54.6978 62.2619 65.119C62.2619 75.5404 53.7547 84.0476 43.3333 84.0476C32.912 84.0476 24.4048 75.5404 24.4048 65.119C24.4048 54.6978 32.912 46.1905 43.3333 46.1905Z" stroke="#039BE5" stroke-width="10" stroke-linecap="round" stroke-linejoin="round"/>
<line x1="43" y1="22" x2="43" y2="70" stroke="#039BE5" stroke-width="10" stroke-linecap="round"/>
</g>
</svg>
