<svg width="24" height="24" viewBox="0 0 24 24" fill="none" xmlns="http://www.w3.org/2000/svg">
<path d="M12 2C6.48 2 2 6.48 2 12s4.48 10 10 10 10-4.48 10-10S17.52 2 12 2zm0 18c-4.41 0-8-3.59-8-8s3.59-8 8-8 8 3.59 8 8-3.59 8-8 8z" fill="hsl(206 90% 54%)"/>
<path d="m14.29 12.71-1.41 1.41L12 13.41l-.88.88-1.41-1.41L10.59 12l-.88-.88 1.41-1.41L12 10.59l.88-.88 1.41 1.41L13.41 12l.88.88zM9 11.5c.83 0 1.5.67 1.5 1.5s-.67 1.5-1.5 1.5S7.5 13.83 7.5 13s.67-1.5 1.5-1.5m6 0c.83 0 1.5.67 1.5 1.5s-.67 1.5-1.5 1.5-1.5-.67-1.5-1.5.67-1.5 1.5-1.5z" fill="hsl(206 90% 54%)"/>
</svg>
